<?xml version="1.0" encoding="UTF-8" standalone="no"?>
<svg
   xmlns:dc="http://purl.org/dc/elements/1.1/"
   xmlns:cc="http://creativecommons.org/ns#"
   xmlns:rdf="http://www.w3.org/1999/02/22-rdf-syntax-ns#"
   xmlns:svg="http://www.w3.org/2000/svg"
   xmlns="http://www.w3.org/2000/svg"
   xmlns:sodipodi="http://sodipodi.sourceforge.net/DTD/sodipodi-0.dtd"
   xmlns:inkscape="http://www.inkscape.org/namespaces/inkscape"
   width="116.72299mm"
   height="120.33602mm"
   viewBox="0 0 116.72299 120.33602"
   version="1.1"
   id="svg344"
   inkscape:version="1.0.1 (3bc2e813f5, 2020-09-07)"
   sodipodi:docname="contact.svg">
  <defs
     id="defs338" />
  <sodipodi:namedview
     id="base"
     pagecolor="#ffffff"
     bordercolor="#666666"
     borderopacity="1.0"
     inkscape:pageopacity="0.0"
     inkscape:pageshadow="2"
     inkscape:zoom="0.35"
     inkscape:cx="220.57888"
     inkscape:cy="227.40665"
     inkscape:document-units="mm"
     inkscape:current-layer="layer1"
     inkscape:document-rotation="0"
     showgrid="false"
     fit-margin-top="0"
     fit-margin-left="0"
     fit-margin-right="0"
     fit-margin-bottom="0"
     inkscape:window-width="1920"
     inkscape:window-height="1043"
     inkscape:window-x="1080"
     inkscape:window-y="0"
     inkscape:window-maximized="1" />
  <metadata
     id="metadata341">
    <rdf:RDF>
      <cc:Work
         rdf:about="">
        <dc:format>image/svg+xml</dc:format>
        <dc:type
           rdf:resource="http://purl.org/dc/dcmitype/StillImage" />
        <dc:title></dc:title>
      </cc:Work>
    </rdf:RDF>
  </metadata>
  <g
     inkscape:label="Layer 1"
     inkscape:groupmode="layer"
     id="layer1"
     transform="translate(-47.471838,-87.998657)">
    <path
       d="m 161.56856,155.73869 c 4.6489,13.60558 -2.36361,28.62933 -14.93027,37.00922 -13.04007,8.69597 -29.26856,9.09602 -44.63979,7.74911 -1.31269,-0.115 -2.623961,-0.24447 -3.934177,-0.38311 -9.667169,-1.02271 -19.581636,-3.26779 -27.860625,-8.24089 -8.758766,-5.26133 -19.435939,-15.41252 -19.582694,-25.85121 -0.115359,-8.20949 1.760361,-16.94074 10.282766,-20.94759 4.573412,-2.15053 9.818511,-2.25743 14.55173,-3.93347 4.471458,-1.58327 7.749116,-5.09059 10.086623,-8.902 2.740377,-4.46828 4.515202,-9.45056 7.648575,-13.6846 7.383282,-9.97761 21.951242,-14.39616 34.030352,-9.78817 6.14433,2.34421 10.93823,6.85376 14.12593,12.25515 3.4932,5.9189 4.31059,13.03478 8.76053,18.47673 4.25627,5.20453 9.27347,9.83897 11.46105,16.24083"
       style="fill:#fbc117;fill-opacity:1;fill-rule:nonzero;stroke:none;stroke-width:0.0352777"
       id="path70" />
    <path
       d="m 103.65726,192.65195 c -2.04893,-1.24848 -3.985681,-2.69311 -5.950654,-4.15431 -3.717219,-2.76331 -7.230533,-4.9329 -11.91895,-5.90339 -4.76744,-0.98707 -9.781823,-1.0922 -14.309725,-2.96016 -6.173258,-2.5467 -10.465152,-8.19255 -12.40543,-14.26245 -1.939925,-6.07025 -1.789289,-12.55854 -1.051983,-18.85879 -4.942417,4.86445 -7.709253,11.62438 -7.509934,18.34903 0.344312,11.62755 9.790289,21.06259 19.693114,27.01114 8.278989,4.9731 18.193456,7.21818 27.860625,8.24089 1.310216,0.13864 2.621487,0.26811 3.934177,0.38311 11.176,0.97931 23.05614,1.17475 33.75307,-2.49343 -2.2733,0.77964 -5.68466,-0.15769 -7.99994,-0.37289 -5.60564,-0.51999 -11.303,-0.47096 -16.78376,-1.81927 -2.69522,-0.66287 -5.07012,-1.79423 -7.31061,-3.15948"
       style="fill:#f68c1e;fill-opacity:1;fill-rule:nonzero;stroke:none;stroke-width:0.0352777"
       id="path72" />
    <path
       d="m 146.63794,192.74896 c -3.25261,2.16959 -6.70278,3.82059 -10.29053,5.05884 -11.01019,1.69333 -21.90397,-1.04775 -30.58583,-7.95514 -5.29167,-4.31095 -8.466666,-10.9467 -15.169443,-12.93637 -8.113889,-2.32127 -17.286111,0.33161 -23.988889,-4.64255 -8.008055,-6.23711 -10.078861,-16.23836 -8.332611,-25.66811 0.797278,-0.56445 1.672167,-1.0795 2.631722,-1.53106 4.575528,-2.15194 9.821334,-2.25778 14.552082,-3.93347 4.473223,-1.58397 7.75053,-5.09058 10.085917,-8.90058 1.957917,-3.19264 3.421946,-6.64634 5.242279,-9.906 0.726721,-1.30175 1.513417,-2.57175 2.409471,-3.78178 7.380112,-9.97656 21.949832,-14.39333 34.028942,-9.78606 4.49792,1.7145 8.26911,4.58964 11.21833,8.12448 1.08303,1.29469 2.05317,2.68111 2.90689,4.13102 3.4925,5.91961 4.31095,13.03514 8.75948,18.47498 4.25803,5.20699 9.27453,9.83897 11.46175,16.24188 4.64961,13.60664 -2.36361,28.62792 -14.92956,37.00992"
       style="fill:#fbc117;fill-opacity:1;fill-rule:nonzero;stroke:none;stroke-width:0.0352777"
       id="path74" />
    <path
       d="m 138.43938,116.89116 c -1.91205,1.97908 -4.75544,3.0868 -7.49652,2.70227 -1.28059,1.48167 -3.54189,2.01789 -5.35517,1.27353 -1.80975,-0.74436 -3.04094,-2.71639 -2.91042,-4.67078 -0.19402,3.91936 -3.8488,7.33778 -7.76816,7.27075 -3.79942,-0.06 -7.239,-3.38314 -7.50711,-7.15433 -0.0212,1.143 -0.7232,2.26483 -1.76389,2.75167 -1.15006,0.54327 -2.63173,0.26811 -3.51367,-0.64911 -0.60325,3.10091 -3.545415,5.57741 -6.702776,5.64091 -1.693333,0.0353 -3.351389,-0.62794 -4.639027,-1.72155 0.726721,-1.30175 1.513417,-2.57175 2.409471,-3.78178 7.380112,-9.97656 21.949832,-14.39333 34.028942,-9.78606 4.49792,1.7145 8.26911,4.58964 11.21833,8.12448"
       style="fill:#f68c1e;fill-opacity:1;fill-rule:nonzero;stroke:none;stroke-width:0.0352777"
       id="path76" />
    <path
       d="m 119.37104,111.31833 c -0.0896,-0.38947 -0.69885,-0.22437 -0.60043,0.1658 0.33056,1.31092 -0.35877,2.83775 -1.71062,3.24838 -1.21884,0.37042 -2.51918,-0.21802 -3.15207,-1.2894 -0.1591,-0.26882 -0.5154,-0.12595 -0.54539,0.14746 -0.20391,1.85772 -1.49684,3.49038 -3.33834,3.95464 -0.84561,0.21343 -1.74766,0.14993 -2.57033,-0.13053 -0.94016,-0.32032 -1.4912,-0.94474 -2.24508,-1.52965 -0.13371,-0.10371 -0.30092,0.0208 -0.23178,0.17886 0.78952,1.8027 3.58493,2.39713 5.29767,1.92088 1.75224,-0.48754 3.07904,-1.96744 3.53589,-3.69112 0.88935,0.98708 2.33962,1.43404 3.61985,0.93381 1.53882,-0.60114 2.29976,-2.34915 1.94063,-3.90913"
       style="fill:#fbc117;fill-opacity:1;fill-rule:nonzero;stroke:none;stroke-width:0.0352777"
       id="path78" />
    <path
       d="m 152.46266,185.033 c -1.46615,2.52236 -2.47545,4.65173 -4.89127,6.49571 -2.06305,1.5748 -4.40514,2.74214 -6.50205,4.26966 -4.13843,3.01343 -8.92739,5.02215 -13.89909,6.17855 -2.86843,0.66711 -4.59704,-1.5494 -2.97286,-3.89607 1.53423,-2.21721 4.06189,-3.56094 5.39221,-5.95419 2.65501,-4.77661 -0.77928,-11.08322 1.37548,-16.10572 0.48507,-1.131 1.56986,-2.26977 2.75837,-1.9505 1.46368,0.39299 1.54482,2.42322 1.27529,3.91512 -0.3429,1.89689 0.23989,5.33471 2.95734,4.1088 4.96605,-2.24013 2.48003,-11.04441 1.48343,-14.6438 -0.66957,-2.41653 -0.43639,-4.62421 -0.60254,-7.08413 -0.0843,-1.25095 0.26317,-2.75978 1.4418,-3.1877 1.12959,-0.40993 2.37525,0.48119 2.87408,1.57445 0.49918,1.09326 0.48718,2.33891 0.65052,3.52919 0.0706,0.51505 0.18732,1.04986 0.52564,1.44462 0.33831,0.39441 0.96132,0.58914 1.39312,0.29986 0.43568,-0.29104 0.49354,-0.89676 0.5087,-1.41993 0.0885,-3.05364 0.0208,-5.60317 -0.54574,-8.60919 -0.52811,-2.80035 -1.67922,-6.06143 -1.67922,-8.9034 -0.28223,-1.49649 -0.49601,-3.24838 0.54892,-4.3561 1.30245,-1.38148 3.80224,-0.69956 4.91031,0.84172 1.10773,1.54164 1.21603,3.56235 1.28376,5.45995 0.1644,4.59987 0.82797,9.36519 0.5588,13.91638 -0.0215,0.36618 -0.0349,0.76376 0.17463,1.06503 0.4258,0.61207 1.47073,0.33832 1.86372,-0.29563 0.39229,-0.63394 0.35313,-1.43051 0.381,-2.17593 0.0275,-0.74507 0.18944,-1.57939 0.80963,-1.99355 0.75424,-0.50341 1.85067,-0.0822 2.35479,0.67204 0.50341,0.75424 0.55457,1.71803 0.51364,2.62396 -0.19297,4.25556 -1.37759,9.01348 -4.58046,11.98281 -1.8027,1.67111 -3.87703,2.91183 -5.44266,4.83693 -1.64853,2.02777 -1.89371,4.25415 -2.42041,6.7691 0.82091,0.64629 2.07257,0.24836 2.83845,-0.46214 0.76624,-0.71084 1.25942,-1.67428 2.01789,-2.39324 0.75812,-0.71896 1.99284,-1.14547 2.83528,-0.5267 0.58843,0.43215 0.78387,1.2506 0.6671,1.97168 -0.11712,0.72107 -0.49071,1.37089 -0.8576,2.00236"
       style="fill:#f68c1e;fill-opacity:1;fill-rule:nonzero;stroke:none;stroke-width:0.0352777"
       id="path80" />
    <path
       d="m 154.19656,162.93642 c -0.90205,1.05586 -1.56069,2.34562 -2.292,3.52283 -0.82303,1.32469 -1.64641,2.64972 -2.46909,3.9744 -1.14124,1.83762 -2.32022,3.66078 -3.44241,5.51498 2.23803,-6.11012 3.42583,-12.59558 3.47945,-19.12726 0.0483,-5.85294 -0.70097,-11.88967 -2.66453,-17.42334 -0.0702,-0.1965 -0.37112,-0.1196 -0.31644,0.0875 1.33879,5.07682 2.28353,10.18328 2.39607,15.44637 0.10971,5.11634 -0.46285,10.24643 -1.71803,15.20825 -0.68086,2.68993 -1.57128,5.31812 -2.64584,7.86553 -1.03999,-5.3788 -2.32692,-10.71598 -3.49567,-16.06691 -0.0501,-0.22931 -0.39688,-0.13158 -0.35066,0.0967 1.13629,5.63245 2.14453,11.30406 3.4424,16.90229 -2.33186,5.25815 -5.47158,10.14977 -9.28158,14.47695 -0.0448,-4.40832 -0.69109,-8.94822 -2.23979,-13.05561 -0.0748,-0.19861 -0.3817,-0.12347 -0.3242,0.0892 1.21849,4.50639 2.01718,8.96092 1.97944,13.61899 -0.13335,0.14711 -0.26565,0.29528 -0.40076,0.44133 -1.53352,1.65241 -3.15842,3.16089 -4.85669,4.57694 -4.9784,0.50306 -10.01325,0.29457 -14.94966,-0.66958 -3.45899,-0.67556 -6.85589,-1.69827 -10.09933,-3.08045 -3.26425,-1.391 -6.366576,-3.14431 -9.68939,-4.40161 -6.628694,-2.5086 -13.937192,-2.02741 -20.56518,-4.54378 -5.905147,-2.24261 -11.101563,-6.36094 -14.600766,-11.62261 -4.206522,-6.32496 -5.788378,-14.09559 -4.795309,-21.59248 0.02963,-0.22119 -0.354188,-0.27481 -0.392288,-0.0533 -2.25425,13.09194 4.680302,26.39695 16.419688,32.44356 2.917825,1.50319 6.028267,2.4758 9.253361,3.0593 3.744383,0.67733 7.561085,0.95779 11.257492,1.89265 3.783189,0.95638 7.214306,2.78836 10.723032,4.43971 3.22086,1.51553 6.55673,2.7432 10.01713,3.58881 5.36892,1.31162 10.96433,1.75718 16.48036,1.30633 -1.60725,1.28799 -3.27484,2.50437 -4.9978,3.67559 -0.0575,-0.16792 -0.28434,-0.2794 -0.42616,-0.11394 -0.25929,0.30303 -0.51611,0.60572 -0.76023,0.92075 -0.2212,0.28575 0.0497,0.73448 0.40922,0.53058 2.53118,-1.43581 4.92619,-3.21028 7.15857,-5.14668 2.04646,-0.22366 4.07846,-0.56973 6.08047,-1.04422 0.40393,-0.0956 0.23284,-0.71332 -0.1718,-0.62195 -1.66335,0.37606 -3.34081,0.66887 -5.02673,0.8823 0.9525,-0.86043 1.87642,-1.74484 2.76225,-2.64442 0.39052,-0.39653 0.77435,-0.79904 1.15323,-1.20686 0.0124,0.16757 0.20355,0.33373 0.37394,0.26282 1.97803,-0.82409 3.95605,-1.64818 5.93408,-2.47226 0.96202,-0.40076 1.92476,-0.80187 2.88678,-1.20227 0.91546,-0.38171 1.92334,-0.69497 2.76719,-1.22026 0.23177,-0.14429 0.0815,-0.50165 -0.1845,-0.4385 -0.99343,0.23636 -1.96145,0.75177 -2.90301,1.14476 -0.96203,0.40182 -1.92405,0.80328 -2.88643,1.20509 -1.79635,0.75001 -3.59269,1.49966 -5.38938,2.24931 0.001,-0.0649 0.002,-0.12982 0.003,-0.19473 2.51107,-2.78906 4.75544,-5.82083 6.67808,-9.04276 1.4157,-2.37278 2.64231,-4.84787 3.68829,-7.39422 1.58679,-2.33645 3.0346,-4.77661 4.53179,-7.16986 0.79692,-1.27352 1.5935,-2.54705 2.39007,-3.82058 0.78387,-1.25342 1.72931,-2.50472 2.31704,-3.86292 0.0642,-0.14816 -0.11994,-0.33866 -0.24659,-0.1905"
       style="fill:#fbc117;fill-opacity:1;fill-rule:nonzero;stroke:none;stroke-width:0.0352777"
       id="path82" />
    <path
       d="m 103.37927,200.37073 c -5.222166,-2.89278 -10.833449,-5.15973 -16.549508,-6.87035 -2.854325,-0.85407 -5.750631,-1.56704 -8.675512,-2.13431 -2.916767,-0.5655 -5.930899,-1.1123 -8.909049,-1.16099 -0.132997,-0.002 -0.169333,0.21379 -0.0321,0.23848 2.926997,0.52635 5.881864,0.84385 8.800748,1.43298 2.867729,0.57821 5.707591,1.29399 8.506529,2.14524 5.745339,1.74696 11.239854,4.09011 16.574912,6.83437 0.32067,0.16475 0.60219,-0.30903 0.28399,-0.48542"
       style="fill:#fbc117;fill-opacity:1;fill-rule:nonzero;stroke:none;stroke-width:0.0352777"
       id="path84" />
    <path
       d="m 105.11952,204.38005 c -1.08655,-0.24695 -2.18016,-0.67381 -3.0233,-1.47109 -0.68792,-0.64911 -1.12889,-1.64394 -1.15006,-2.58939 -0.007,-0.508 0.0988,-1.23472 0.66323,-1.81327 0.44097,-0.45156 0.95249,-0.59267 1.41816,-0.59267 0.50095,0 0.94897,0.16228 1.19945,0.27869 1.18886,0.54681 2.3248,1.87678 2.19427,3.3655 -0.0953,1.09009 -0.58561,2.032 -1.30175,2.82223 z M 60.098026,169.12343 c -3.361972,1.97909 -7.743472,1.61925 -10.188222,-0.84314 -1.30175,-1.3088 -1.943806,-3.36902 -1.672167,-5.3728 0.236361,-1.75331 1.139472,-3.1997 2.4765,-3.96875 0.860778,-0.49389 1.802695,-0.70556 2.744611,-0.70556 1.707445,0 3.421945,0.69497 4.674306,1.64747 2.204861,1.67217 3.630083,4.2545 4.73075,6.56167 0.03528,0.0741 0.06703,0.14464 0.102305,0.21872 -0.843139,1.00189 -1.80975,1.83798 -2.868083,2.46239 z m 30.818665,-51.66077 c 2.197807,0.85725 3.788834,2.74461 3.965223,4.78719 0.105834,1.23472 -0.440973,2.56822 -1.432277,3.47839 -0.836083,0.77258 -1.87325,1.12183 -2.846916,0.95955 -1.00189,-0.16933 -1.85914,-0.83255 -2.413,-1.86619 -0.6985,-1.30175 -0.77964,-2.97392 -0.204613,-4.2545 0.635,-1.41464 1.749779,-2.40947 2.931583,-3.10444 z m 31.982829,84.074 c -4.84011,2.55764 -10.50219,3.66889 -15.94908,3.12561 -0.33161,-0.0318 -0.67733,-0.0741 -1.03717,-0.13053 0.66323,-0.82903 1.11478,-1.79917 1.21356,-2.91042 0.15875,-1.81327 -1.19239,-3.42194 -2.60703,-4.07105 -1.28058,-0.58914 -2.55764,-0.41628 -3.41841,0.46566 -0.57856,0.5962 -0.87842,1.397 -0.86078,2.31775 0.0247,1.14653 0.53622,2.30012 1.36878,3.08681 0.83961,0.79375 1.87677,1.25589 2.92099,1.54164 -0.97719,0.85019 -2.20133,1.47461 -3.36902,1.86267 -5.969002,1.97908 -13.208002,0.24694 -18.898306,-4.52967 -4.448529,-3.73239 -8.015113,-9.1052 -11.225389,-16.90512 -1.040695,-2.52941 -1.993195,-5.14702 -2.913945,-7.6835 -1.315861,-3.63008 -2.674055,-7.37305 -4.332111,-10.94316 1.404056,-1.78506 2.458861,-4.02167 3.040945,-6.52992 0.874889,-3.77119 0.684389,-7.76111 0.416278,-11.52525 l -0.07056,-0.96661 c -0.254,-3.429 -0.515056,-6.97794 -0.03528,-10.41047 1.210028,-8.61131 7.50711,-16.41122 15.670389,-19.40278 2.748138,-1.00894 5.178777,-1.25941 7.228417,-0.74436 -1.093613,0.73731 -2.091973,1.73567 -2.69875,3.09386 -0.670279,1.49578 -0.585613,3.3655 0.225777,4.87892 0.656167,1.23119 1.693333,2.02142 2.917473,2.22603 1.192387,0.19755 2.44475,-0.2152 3.44311,-1.13595 1.146527,-1.0548 1.778,-2.61055 1.654527,-4.05694 -0.183443,-2.13431 -1.71097,-4.10986 -3.86997,-5.15056 0.94897,-0.45155 1.883833,-0.73378 2.596443,-0.90311 1.344084,-0.32103 2.74814,-0.48683 4.106334,-0.64558 1.354666,-0.16228 2.755188,-0.32809 4.113388,-0.64206 5.49275,-1.28411 10.38225,-5.25639 12.7635,-10.37166 2.06728,-4.43089 2.27189,-11.38767 0.68792,-16.478253 h -0.74436 c 1.58044,4.917722 1.41111,11.90625 -0.58208,16.181913 -2.29306,4.92125 -6.99911,8.74536 -12.28725,9.98009 -1.31939,0.30691 -2.698752,0.46919 -4.032252,0.62794 -1.37936,0.16228 -2.804583,0.33161 -4.187471,0.65969 -0.892529,0.2152 -2.106083,0.58914 -3.291416,1.23825 -0.15875,-0.0529 -0.3175,-0.1023 -0.47625,-0.14463 -2.22603,-0.60325 -4.850696,-0.35984 -7.8105,0.72319 -8.39964,3.07975 -14.880167,11.10544 -16.125473,19.96722 -0.490361,3.50661 -0.225778,7.09436 0.02822,10.56217 l 0.07056,0.96308 c 0.278694,3.86292 0.455083,7.63764 -0.398639,11.31711 -0.529167,2.27542 -1.456972,4.31447 -2.691694,5.969 -1.128891,-2.36008 -2.596447,-4.98475 -4.89303,-6.72747 -2.12725,-1.61219 -5.489222,-2.54353 -8.198556,-0.98778 -1.527527,0.87842 -2.557638,2.51178 -2.822222,4.48734 -0.299861,2.21544 0.416278,4.50144 1.869722,5.96194 2.667,2.68111 7.415389,3.09386 11.049,0.9525 1.037167,-0.61383 1.989667,-1.41111 2.836334,-2.36714 1.580444,3.45017 2.892777,7.0732 4.166305,10.58333 0.924278,2.54353 1.876778,5.17173 2.924528,7.71525 3.252611,7.90576 6.886222,13.36323 11.422945,17.17323 4.265083,3.57717 9.38036,5.4998 14.23811,5.4998 1.834444,0 3.63714,-0.27516 5.337529,-0.83961 1.39347,-0.46214 2.86455,-1.24883 3.97227,-2.34597 0.52917,0.10231 1.04423,0.16581 1.524,0.2152 5.58095,0.55738 11.38767,-0.58209 16.34773,-3.20675 l -0.32809,-0.62089"
       style="fill:#44b8b8;fill-opacity:1;fill-rule:nonzero;stroke:none;stroke-width:0.0352777"
       id="path86" />
    <path
       d="m 128.44554,151.73114 v 19.47439 c 0,0.65052 -0.14711,1.27211 -0.4131,1.82456 -0.67945,1.44004 -2.14806,2.43417 -3.84563,2.43417 H 95.424839 l -7.000168,7.00017 v -7.00017 h -1.174046 c -2.352675,0 -4.259086,-1.90641 -4.259086,-4.25873 v -19.47439 c 0,-2.35268 1.906411,-4.25909 4.259086,-4.25909 h 36.936185 c 2.35197,0 4.25873,1.90641 4.25873,4.25909"
       style="fill:#aa4dad;fill-opacity:1;fill-rule:nonzero;stroke:none;stroke-width:0.0352777"
       id="path88" />
    <path
       d="m 128.44554,151.73114 v 19.47439 c 0,0.65052 -0.14711,1.27211 -0.4131,1.82456 l -2.31175,-2.31175 H 96.959071 c -2.352323,0 -4.258734,-1.90641 -4.258734,-4.26296 v -18.98333 h 31.486473 c 2.35197,0 4.25873,1.90641 4.25873,4.25909"
       style="fill:#94329d;fill-opacity:1;fill-rule:nonzero;stroke:none;stroke-width:0.0352777"
       id="path90" />
    <path
       d="M 137.16797,140.26692 H 100.2325 c -2.352679,0 -4.259796,1.90711 -4.259796,4.26014 v 19.47545 c 0,2.35268 1.907117,4.26014 4.259796,4.26014 h 28.76091 l 7.00052,7.00053 v -7.00053 h 1.17404 c 2.35268,0 4.2605,-1.90746 4.2605,-4.26014 v -19.47545 c 0,-2.35303 -1.90782,-4.26014 -4.2605,-4.26014"
       style="fill:#44b8b8;fill-opacity:1;fill-rule:nonzero;stroke:none;stroke-width:0.0352777"
       id="path92" />
    <path
       d="m 139.70656,163.47405 v -17.82516 c 0,-2.26659 -1.83691,-4.10351 -4.10351,-4.10386 h -33.80528 v 0.40922 h 33.80528 c 1.02094,0 1.9431,0.4131 2.61232,1.08197 0.66887,0.66957 1.08197,1.59173 1.08232,2.61267 v 17.82516 h 0.40887"
       style="fill:#ffffff;fill-opacity:1;fill-rule:nonzero;stroke:none;stroke-width:0.0352777"
       id="path94" />
    <path
       d="m 110.59957,160.87478 c 0,1.02976 -0.83467,1.86408 -1.86443,1.86408 -1.0294,0 -1.86407,-0.83432 -1.86407,-1.86408 0,-1.02975 0.83467,-1.86443 1.86407,-1.86443 1.02976,0 1.86443,0.83468 1.86443,1.86443"
       style="fill:#ffffff;fill-opacity:1;fill-rule:nonzero;stroke:none;stroke-width:0.0352777"
       id="path96" />
    <path
       d="m 120.56484,160.87478 c 0,1.02976 -0.83467,1.86408 -1.86443,1.86408 -1.0294,0 -1.86408,-0.83432 -1.86408,-1.86408 0,-1.02975 0.83468,-1.86443 1.86408,-1.86443 1.02976,0 1.86443,0.83468 1.86443,1.86443"
       style="fill:#ffffff;fill-opacity:1;fill-rule:nonzero;stroke:none;stroke-width:0.0352777"
       id="path98" />
    <path
       d="m 130.53011,160.87478 c 0,1.02976 -0.83468,1.86408 -1.86443,1.86408 -1.02976,0 -1.86408,-0.83432 -1.86408,-1.86408 0,-1.02975 0.83432,-1.86443 1.86408,-1.86443 1.02975,0 1.86443,0.83468 1.86443,1.86443"
       style="fill:#ffffff;fill-opacity:1;fill-rule:nonzero;stroke:none;stroke-width:0.0352777"
       id="path100" />
    <path
       d="m 145.11394,128.07774 4.28907,3.4611 1.67746,-6.46747 z"
       style="fill:#94329d;fill-opacity:1;fill-rule:nonzero;stroke:none;stroke-width:0.0352777"
       id="path102" />
    <path
       d="m 157.49962,123.72517 -18.92971,11.00984 -11.88508,-19.9256 z"
       style="fill:#aa4dad;fill-opacity:1;fill-rule:nonzero;stroke:none;stroke-width:0.0352777"
       id="path104" />
    <path
       d="m 153.9796,123.54137 -18.17723,-5.48217 -0.10195,0.33796 18.17758,5.48182"
       style="fill:#ffffff;fill-opacity:1;fill-rule:nonzero;stroke:none;stroke-width:0.0352777"
       id="path106" />
    <path
       d="m 147.28388,129.73756 -20.59905,-14.92815 23.7176,12.87639 z"
       style="fill:#94329d;fill-opacity:1;fill-rule:nonzero;stroke:none;stroke-width:0.0352777"
       id="path108" />
    <path
       d="m 91.697037,137.3378 -29.397325,10.23797 -6.175375,-17.73203 29.396971,-10.23796 6.175729,17.73202"
       style="fill:#44b8b8;fill-opacity:1;fill-rule:nonzero;stroke:none;stroke-width:0.0352777"
       id="path110" />
    <path
       d="m 79.491983,140.15826 10.265481,-3.4738 -4.068939,-13.02703 -0.33655,0.10548 3.965929,12.69789 -9.938808,3.36303 0.112887,0.33443"
       style="fill:#ffffff;fill-opacity:1;fill-rule:nonzero;stroke:none;stroke-width:0.0352777"
       id="path112" />
    <path
       d="M 91.697037,137.3378 74.041214,133.96631 62.299712,147.57577 Z"
       style="fill:#44b8b8;fill-opacity:1;fill-rule:nonzero;stroke:none;stroke-width:0.0352777"
       id="path114" />
    <path
       d="m 85.52025,119.60649 -2.0828,2.60314 -9.395529,11.75597 -14.555259,-3.39796 -3.254375,-0.76129 2.094442,-2.56928 5.027789,-6.16338 4.342341,-5.32695 6.753224,1.46262 7.836606,1.6958 3.233561,0.70133"
       style="fill:#367ab7;fill-opacity:1;fill-rule:nonzero;stroke:none;stroke-width:0.0352777"
       id="path116" />
    <path
       d="m 80.912266,114.95899 2.525184,7.25064 -9.395529,11.75597 -14.555259,-3.39796 -2.530475,-7.26545 23.956079,-8.3432"
       style="fill:#aa4dad;fill-opacity:1;fill-rule:nonzero;stroke:none;stroke-width:0.0352777"
       id="path118" />
    <path
       d="m 62.373443,125.47424 4.526139,-1.57621 -0.130881,-0.37571 -4.526139,1.57621"
       style="fill:#fbc117;fill-opacity:1;fill-rule:nonzero;stroke:none;stroke-width:0.0352777"
       id="path120" />
    <path
       d="m 63.485045,128.66582 15.394869,-5.36152 -0.130881,-0.37535 -15.394868,5.36116"
       style="fill:#fbc117;fill-opacity:1;fill-rule:nonzero;stroke:none;stroke-width:0.0352777"
       id="path122" />
    <path
       d="m 64.106287,130.44946 15.394517,-5.36151 -0.130529,-0.37571 -15.394868,5.36152"
       style="fill:#fbc117;fill-opacity:1;fill-rule:nonzero;stroke:none;stroke-width:0.0352777"
       id="path124" />
    <path
       d="m 160.89193,164.73664 c 0.24835,0.51788 1.25448,2.42711 1.93498,3.50132 1.34867,2.12937 1.70357,3.33904 1.04917,5.89315 -0.66958,2.61338 -1.82492,5.08812 -3.00955,7.50147 -2.47333,5.04013 -5.88504,9.59944 -9.92928,13.48599 -11.39191,10.9474 -23.08967,9.73385 -25.06416,10.14483 -1.97626,0.41028 -5.69101,-3.91795 -5.69101,-3.91795 2.84974,-2.00342 8.1033,-4.07705 10.67435,-5.03061 0,0 1.899,5.98099 11.31816,-1.57092 9.41882,-7.55368 17.58598,-16.84937 12.29819,-20.1235 1.76742,-4.0005 6.41915,-9.88378 6.41915,-9.88378"
       style="fill:#44b8b8;fill-opacity:1;fill-rule:nonzero;stroke:none;stroke-width:0.0352777"
       id="path126" />
    <path
       d="m 150.5245,192.90912 c 0.01,-0.0123 9.79946,-9.39588 12.65872,-21.8253 l -0.34396,-0.079 c -1.41181,6.14856 -4.55189,11.56511 -7.3406,15.44179 -1.39418,1.93816 -2.70016,3.49179 -3.65689,4.55965 -0.47837,0.53411 -0.86925,0.94686 -1.14053,1.22555 -0.13547,0.1397 -0.24095,0.24553 -0.31256,0.31644 -0.0716,0.0709 -0.10831,0.10619 -0.10831,0.10619 l 0.24413,0.2547"
       style="fill:#ffffff;fill-opacity:1;fill-rule:nonzero;stroke:none;stroke-width:0.0352777"
       id="path128" />
    <path
       d="m 154.47067,174.62783 0.002,-0.007 c 5.28779,3.27412 -2.87937,12.56982 -12.29819,20.1235 -9.41916,7.55191 -11.31816,1.57092 -11.31816,1.57092 l -2.7e-4,-0.001 c 0.92075,-0.34043 1.49684,-0.53834 1.49684,-0.53834 3.85092,4.76991 19.0814,-12.93672 21.22135,-15.46931 2.14206,-2.53295 0.35454,-4.1716 0.35454,-4.1716 l 0.54187,-1.50636"
       style="fill:#367ab7;fill-opacity:1;fill-rule:nonzero;stroke:none;stroke-width:0.0352777"
       id="path130" />
    <path
       d="m 154.47067,174.62783 -0.54187,1.50636 c 0.11465,-0.45438 0.30092,-0.96274 0.54187,-1.50636"
       style="fill:#df1f25;fill-opacity:1;fill-rule:nonzero;stroke:none;stroke-width:0.0352777"
       id="path132" />
    <path
       d="m 120.18208,201.34545 -2.1971,-3.55847 c -0.85866,-1.391 -0.50095,-3.2071 0.82197,-4.16842 2.08527,-1.51553 5.29731,-3.54965 8.34637,-4.26896 1.5554,-0.36689 3.13584,0.50623 3.66219,2.01542 l 1.5374,4.41007 -12.17083,5.57036"
       style="fill:#44b8b8;fill-opacity:1;fill-rule:nonzero;stroke:none;stroke-width:0.0352777"
       id="path134" />
    <path
       d="m 153.9288,176.13419 -2.68076,-1.54059 c -0.83361,-0.47836 -1.32397,-1.38676 -1.26188,-2.34561 0.16016,-2.47192 1.05233,-7.16598 5.33858,-9.61461 0.84596,-0.4833 1.89548,-0.43991 2.69628,0.11465 l 2.87091,1.98861 c 0,0 -3.51508,5.3841 -6.96313,11.39755"
       style="fill:#44b8b8;fill-opacity:1;fill-rule:nonzero;stroke:none;stroke-width:0.0352777"
       id="path136" />
    <path
       d="m 132.03188,195.35458 -0.0109,0.008 c -0.254,0.19227 -4.93818,3.65584 -11.97116,5.47053 l 0.26458,1.02482 c 7.47007,-1.93111 12.32465,-5.63704 12.35957,-5.66208 l -0.64205,-0.84138"
       style="fill:#367ab7;fill-opacity:1;fill-rule:nonzero;stroke:none;stroke-width:0.0352777"
       id="path138" />
    <path
       d="m 154.29181,176.51906 c 0.013,-0.0127 1.61854,-1.52505 3.31047,-3.73309 0.84631,-1.1049 1.7145,-2.38372 2.41547,-3.74368 0.70026,-1.36066 1.23683,-2.80317 1.40017,-4.24638 l -1.05163,-0.11853 c -0.14111,1.26153 -0.62689,2.59609 -1.2894,3.87985 -0.99201,1.92651 -2.3742,3.73485 -3.50661,5.05212 -0.56621,0.65935 -1.06963,1.19663 -1.43052,1.56775 -0.18027,0.18556 -0.32491,0.32949 -0.42404,0.42686 -0.0494,0.0483 -0.0875,0.0854 -0.11289,0.10972 l -0.0286,0.0272 -0.008,0.008 0.72602,0.77011"
       style="fill:#367ab7;fill-opacity:1;fill-rule:nonzero;stroke:none;stroke-width:0.0352777"
       id="path140" />
    <path
       d="m 152.3346,133.19866 c 2.18193,2.08598 3.59974,4.96711 3.92183,7.96854 0.042,0.39018 0.0649,0.78423 0.0649,1.17687 0,1.24531 -0.23213,2.47156 -0.8128,3.52602 -0.37783,0.6865 -0.93133,1.29716 -1.57974,1.73037 -0.64911,0.43392 -1.38924,0.69003 -2.14877,0.69003 h -0.0116 0.001 c -0.74683,-0.001 -1.51095,-0.30938 -2.08386,-0.80715 -0.57432,-0.49883 -0.94968,-1.17228 -0.97543,-1.89795 l -0.001,-0.0854 c -8e-4,-0.78246 0.39617,-1.51094 1.02129,-2.05916 0.62336,-0.54716 1.46614,-0.895 2.28565,-0.91405 0.0349,-0.001 0.0702,-0.001 0.10512,-0.001 0.83503,0 1.64854,0.24871 2.40489,0.66499 0.75565,0.41592 1.45062,0.99871 2.03623,1.64959 1.7526,1.94733 2.66242,4.5854 2.66207,7.21818 0,2.06728 -0.56022,4.12609 -1.69616,5.8413 l 0.58843,0.38946 c 1.22026,-1.84396 1.81293,-4.03718 1.81328,-6.23076 -7.9e-4,-2.79294 -0.96061,-5.5954 -2.84304,-7.68985 -0.63111,-0.70096 -1.38183,-1.33385 -2.22073,-1.79599 -0.8382,-0.46143 -1.76812,-0.75247 -2.74497,-0.75247 -0.0409,0 -0.0818,2.6e-4 -0.12276,0.001 -1.00365,0.0268 -1.98614,0.43674 -2.73262,1.08867 -0.74436,0.65087 -1.26153,1.56245 -1.26224,2.59009 0,0.037 8e-4,0.0741 0.002,0.11113 0.0356,0.95673 0.52352,1.80305 1.21814,2.40524 0.69603,0.60219 1.6069,0.97543 2.54388,0.97966 h 10e-4 0.0116 c 0.92005,-2.6e-4 1.79388,-0.30938 2.54071,-0.80927 0.74789,-0.50024 1.37301,-1.19098 1.80587,-1.97661 0.65405,-1.18887 0.89993,-2.53542 0.90029,-3.8661 0,-0.42015 -0.0247,-0.83925 -0.0691,-1.252 -0.34149,-3.17148 -1.83092,-6.19796 -4.13561,-8.40317 l -0.48754,0.50976"
       style="fill:#aa4dad;fill-opacity:1;fill-rule:nonzero;stroke:none;stroke-width:0.0352777"
       id="path142" />
    <path
       d="m 84.594208,190.66687 c 0,8.18268 -6.633633,14.81596 -14.81596,14.81596 -8.18268,0 -14.815961,-6.63328 -14.815961,-14.81596 0,-8.18233 6.633281,-14.81597 14.815961,-14.81597 8.182327,0 14.81596,6.63364 14.81596,14.81597"
       style="fill:#aa4dad;fill-opacity:1;fill-rule:nonzero;stroke:none;stroke-width:0.0352777"
       id="path144" />
    <path
       d="m 69.778248,177.26554 c 3.700992,0 7.050264,1.49966 9.476316,3.92501 2.425348,2.42605 3.925007,5.77497 3.925007,9.47632 h 0.352777 c 0,-7.59602 -6.15809,-13.75411 -13.7541,-13.75411 v 0.35278"
       style="fill:#ffffff;fill-opacity:1;fill-rule:nonzero;stroke:none;stroke-width:0.0352777"
       id="path146" />
    <path
       d="m 81.715541,190.66687 c 0,6.59271 -5.344583,11.93729 -11.937293,11.93729 -6.592711,0 -11.937294,-5.34458 -11.937294,-11.93729 0,-6.59307 5.344583,-11.9373 11.937294,-11.9373 6.59271,0 11.937293,5.34423 11.937293,11.9373"
       style="fill:#ffffff;fill-opacity:1;fill-rule:nonzero;stroke:none;stroke-width:0.0352777"
       id="path148" />
    <path
       d="m 69.778248,178.72957 c -3.523544,0 -6.689725,1.52753 -8.87483,3.95534 2.114902,-1.90358 4.912783,-3.06281 7.982302,-3.06281 6.592711,0 11.937294,5.34458 11.937294,11.9373 0,3.06916 -1.159581,5.8674 -3.062816,7.98195 2.427816,-2.18476 3.955343,-5.35094 3.955343,-8.87448 0,-6.59307 -5.344583,-11.9373 -11.937293,-11.9373"
       style="fill:#c7cbca;fill-opacity:1;fill-rule:nonzero;stroke:none;stroke-width:0.0352777"
       id="path150" />
    <path
       d="m 69.321754,182.43374 v 8.85225 c 0,0.23213 0.09419,0.45932 0.258233,0.62372 0.164394,0.16404 0.391583,0.25823 0.623711,0.25823 h 6.379633 c 0.487185,0 0.881944,-0.39511 0.881944,-0.88195 0,-0.48718 -0.394759,-0.88194 -0.881944,-0.88194 h -5.497688 v -7.97031 c 0,-0.48719 -0.394759,-0.88195 -0.881945,-0.88195 -0.487186,0 -0.881944,0.39476 -0.881944,0.88195"
       style="fill:#44b8b8;fill-opacity:1;fill-rule:nonzero;stroke:none;stroke-width:0.0352777"
       id="path152" />
  </g>
</svg>
