<svg xmlns="http://www.w3.org/2000/svg" viewBox="0 0 146 113" width="146" height="113">
	<style>
		tspan { white-space:pre }
		.shp0 { opacity: 0.251;fill: #f9320c } 
	</style>
	<g id="Testimonials">
		<g id="Background">
			<path id="Quote" class="shp0" d="M44.92 45.2L40.16 45.2C43.78 38.88 48.31 32.46 52.13 27.94C58.15 20.81 57.3 10.12 50.22 4.05C47.05 1.33 43.17 0 39.31 0C34.55 0 29.83 2.01 26.5 5.94C22.07 11.16 0 33.9 0 62.15L0 90.4C0 102.88 10.06 113 22.46 113L44.92 113C57.33 113 67.38 102.88 67.38 90.4L67.38 67.8C67.38 55.32 57.33 45.2 44.92 45.2ZM56.15 90.4C56.15 96.63 51.12 101.7 44.92 101.7L22.46 101.7C16.28 101.7 11.23 96.63 11.23 90.4L11.23 62.15C11.23 40.33 28.08 21.2 33.61 14.92L35.04 13.28C36.5 11.56 38.34 11.3 39.31 11.3C40.24 11.3 41.63 11.54 42.95 12.66C45.3 14.68 45.58 18.25 43.56 20.63C39.11 25.9 34.2 32.98 30.44 39.56C28.43 43.05 28.43 47.36 30.45 50.86C32.44 54.35 36.15 56.5 40.16 56.5L44.92 56.5C51.12 56.5 56.15 61.57 56.15 67.8L56.15 90.4ZM123.54 45.2L118.78 45.2C122.4 38.88 126.93 32.46 130.74 27.94C136.76 20.81 135.92 10.12 128.84 4.05C125.67 1.33 121.78 0 117.91 0C113.16 0 108.44 2.01 105.11 5.94C100.68 11.16 78.62 33.9 78.62 62.15L78.62 90.4C78.62 102.88 88.67 113 101.08 113L123.54 113C135.94 113 146 102.88 146 90.4L146 67.8C146 55.32 135.94 45.2 123.54 45.2ZM134.77 90.4C134.77 96.63 129.74 101.7 123.54 101.7L101.08 101.7C94.88 101.7 89.85 96.63 89.85 90.4L89.85 62.15C89.85 40.31 106.69 21.19 112.23 14.91L113.66 13.28C115.12 11.56 116.95 11.3 117.91 11.3C118.86 11.3 120.25 11.54 121.56 12.66C123.91 14.68 124.2 18.25 122.19 20.63C117.73 25.9 112.81 32.98 109.05 39.56C107.04 43.05 107.04 47.36 109.05 50.86C111.06 54.35 114.76 56.5 118.78 56.5L123.54 56.5C129.74 56.5 134.77 61.57 134.77 67.8L134.77 90.4Z" />
		</g>
	</g>
</svg>