<svg id="Icons" height="512" viewBox="0 0 74 74" width="512" xmlns="http://www.w3.org/2000/svg"><path d="m12 57h-9a1 1 0 0 1 -1-1v-8.883a1 1 0 0 1 1-1h9a1 1 0 0 1 1 1v8.883a1 1 0 0 1 -1 1zm-8-2h7v-6.883h-7z"/><path d="m41.5 27.883h-9a1 1 0 0 1 -1-1v-8.883a1 1 0 0 1 1-1h9a1 1 0 0 1 1 1v8.883a1 1 0 0 1 -1 1zm-8-2h7v-6.883h-7z"/><path d="m8.5 47.117h-2a25.869 25.869 0 0 1 26-25.676v2a23.867 23.867 0 0 0 -24 23.676z"/><path d="m71 57h-9a1 1 0 0 1 -1-1v-8.883a1 1 0 0 1 1-1h9a1 1 0 0 1 1 1v8.883a1 1 0 0 1 -1 1zm-8-2h7v-6.883h-7z"/><path d="m67.5 47.117h-2a23.867 23.867 0 0 0 -24-23.676v-2a25.869 25.869 0 0 1 26 25.676z"/><path d="m41.5 21.441h18.5v2h-18.5z"/><path d="m13 21.441h19.5v2h-19.5z"/><path d="m63 26.4a3.961 3.961 0 1 1 4-3.961 3.985 3.985 0 0 1 -4 3.961zm0-5.922a1.961 1.961 0 1 0 2 1.961 1.983 1.983 0 0 0 -2-1.959z"/><path d="m10 26.4a3.961 3.961 0 1 1 4-3.961 3.985 3.985 0 0 1 -4 3.961zm0-5.922a1.961 1.961 0 1 0 2 1.961 1.983 1.983 0 0 0 -2-1.959z"/></svg>